{
    "asset" : {
        "generator" : "Khronos glTF Blender I/O v1.6.16",
        "version" : "2.0"
    },
    "scene" : 0,
    "scenes" : [
        {
            "name" : "Scene",
            "nodes" : [
                0
            ]
        }
    ],
    "nodes" : [
        {
            "mesh" : 0,
            "name" : "tree1",
            "translation" : [
                0,
                1.4218202829360962,
                0
            ]
        }
    ],
    "materials" : [
        {
            "doubleSided" : true,
            "name" : "material.001",
            "pbrMetallicRoughness" : {
                "baseColorFactor" : [
                    0.008816931396722794,
                    0.08714009821414948,
                    0.009587017819285393,
                    1
                ],
                "metallicFactor" : 0,
                "roughnessFactor" : 0.7304964661598206
            }
        },
        {
            "doubleSided" : true,
            "name" : "material.002",
            "pbrMetallicRoughness" : {
                "baseColorFactor" : [
                    0.05344310402870178,
                    0.03131214901804924,
                    0.029375260695815086,
                    1
                ],
                "metallicFactor" : 0,
                "roughnessFactor" : 0.8510638475418091
            }
        }
    ],
    "meshes" : [
        {
            "name" : "\u5186\u67f1",
            "primitives" : [
                {
                    "attributes" : {
                        "POSITION" : 0,
                        "NORMAL" : 1,
                        "TEXCOORD_0" : 2
                    },
                    "indices" : 3,
                    "material" : 0
                },
                {
                    "attributes" : {
                        "POSITION" : 4,
                        "NORMAL" : 5,
                        "TEXCOORD_0" : 6
                    },
                    "indices" : 7,
                    "material" : 1
                }
            ]
        }
    ],
    "accessors" : [
        {
            "bufferView" : 0,
            "componentType" : 5126,
            "count" : 754,
            "max" : [
                2.847794532775879,
                1.055751919746399,
                2.7091639041900635
            ],
            "min" : [
                -2.852167844772339,
                -1.4185115098953247,
                -2.8414440155029297
            ],
            "type" : "VEC3"
        },
        {
            "bufferView" : 1,
            "componentType" : 5126,
            "count" : 754,
            "type" : "VEC3"
        },
        {
            "bufferView" : 2,
            "componentType" : 5126,
            "count" : 754,
            "type" : "VEC2"
        },
        {
            "bufferView" : 3,
            "componentType" : 5123,
            "count" : 1176,
            "type" : "SCALAR"
        },
        {
            "bufferView" : 4,
            "componentType" : 5126,
            "count" : 20,
            "max" : [
                0.46776771545410156,
                0.7787696719169617,
                0.3930301368236542
            ],
            "min" : [
                -0.4648096263408661,
                -1.4185115098953247,
                -0.49390357732772827
            ],
            "type" : "VEC3"
        },
        {
            "bufferView" : 5,
            "componentType" : 5126,
            "count" : 20,
            "type" : "VEC3"
        },
        {
            "bufferView" : 6,
            "componentType" : 5126,
            "count" : 20,
            "type" : "VEC2"
        },
        {
            "bufferView" : 7,
            "componentType" : 5123,
            "count" : 30,
            "type" : "SCALAR"
        }
    ],
    "bufferViews" : [
        {
            "buffer" : 0,
            "byteLength" : 9048,
            "byteOffset" : 0
        },
        {
            "buffer" : 0,
            "byteLength" : 9048,
            "byteOffset" : 9048
        },
        {
            "buffer" : 0,
            "byteLength" : 6032,
            "byteOffset" : 18096
        },
        {
            "buffer" : 0,
            "byteLength" : 2352,
            "byteOffset" : 24128
        },
        {
            "buffer" : 0,
            "byteLength" : 240,
            "byteOffset" : 26480
        },
        {
            "buffer" : 0,
            "byteLength" : 240,
            "byteOffset" : 26720
        },
        {
            "buffer" : 0,
            "byteLength" : 160,
            "byteOffset" : 26960
        },
        {
            "buffer" : 0,
            "byteLength" : 60,
            "byteOffset" : 27120
        }
    ],
    "buffers" : [
        {
            "byteLength" : 27180,
            "uri" : "tree.bin"
        }
    ]
}
