{
    "asset" : {
        "generator" : "Khronos glTF Blender I/O v3.4.50",
        "version" : "2.0"
    },
    "scene" : 0,
    "scenes" : [
        {
            "name" : "Scene",
            "nodes" : [
                0
            ]
        }
    ],
    "nodes" : [
        {
            "mesh" : 0,
            "name" : "\u5e73\u9762"
        }
    ],
    "materials" : [
        {
            "doubleSided" : true,
            "name" : "Tex",
            "pbrMetallicRoughness" : {
                "metallicFactor" : 0,
                "roughnessFactor" : 0.5
            }
        }
    ],
    "meshes" : [
        {
            "name" : "\u5e73\u9762",
            "primitives" : [
                {
                    "attributes" : {
                        "POSITION" : 0,
                        "TEXCOORD_0" : 1,
                        "TEXCOORD_1" : 2,
                        "NORMAL" : 3
                    },
                    "indices" : 4,
                    "material" : 0
                }
            ]
        }
    ],
    "accessors" : [
        {
            "bufferView" : 0,
            "componentType" : 5126,
            "count" : 30546,
            "max" : [
                54.5,
                12.956250190734863,
                84.45000457763672
            ],
            "min" : [
                -60.5,
                -0.5,
                -48
            ],
            "type" : "VEC3"
        },
        {
            "bufferView" : 1,
            "componentType" : 5126,
            "count" : 30546,
            "type" : "VEC2"
        },
        {
            "bufferView" : 2,
            "componentType" : 5126,
            "count" : 30546,
            "type" : "VEC2"
        },
        {
            "bufferView" : 3,
            "componentType" : 5126,
            "count" : 30546,
            "type" : "VEC3"
        },
        {
            "bufferView" : 4,
            "componentType" : 5123,
            "count" : 48450,
            "type" : "SCALAR"
        }
    ],
    "bufferViews" : [
        {
            "buffer" : 0,
            "byteLength" : 366552,
            "byteOffset" : 0,
            "target" : 34962
        },
        {
            "buffer" : 0,
            "byteLength" : 244368,
            "byteOffset" : 366552,
            "target" : 34962
        },
        {
            "buffer" : 0,
            "byteLength" : 244368,
            "byteOffset" : 610920,
            "target" : 34962
        },
        {
            "buffer" : 0,
            "byteLength" : 366552,
            "byteOffset" : 855288,
            "target" : 34962
        },
        {
            "buffer" : 0,
            "byteLength" : 96900,
            "byteOffset" : 1221840,
            "target" : 34963
        }
    ],
    "buffers" : [
        {
            "byteLength" : 1318740,
            "uri" : "Project_S_NewStage_0115_Test.bin"
        }
    ]
}
