{
    "asset" : {
        "generator" : "Khronos glTF Blender I/O v3.4.50",
        "version" : "2.0"
    },
    "scene" : 0,
    "scenes" : [
        {
            "name" : "Scene",
            "nodes" : [
                20
            ]
        }
    ],
    "nodes" : [
        {
            "name" : "Bone.001_L.003",
            "rotation" : [
                -1.2027494733501953e-07,
                -3.3325949999607474e-08,
                0.6124507188796997,
                0.7905088067054749
            ],
            "translation" : [
                -2.6645352591003757e-15,
                1.1644104719161987,
                1.0658141036401503e-14
            ]
        },
        {
            "children" : [
                0
            ],
            "name" : "Bone.001_L.002",
            "rotation" : [
                -1.337786659227902e-09,
                1.457013354411174e-07,
                0.01441194862127304,
                0.9998961687088013
            ],
            "scale" : [
                1,
                0.9999998807907104,
                1
            ],
            "translation" : [
                -7.327471962526033e-15,
                0.7582264542579651,
                -1.4210854715202004e-14
            ]
        },
        {
            "children" : [
                1
            ],
            "name" : "Bone.001_L.001",
            "rotation" : [
                -1.1463578530879204e-08,
                1.4564407990746986e-07,
                -0.05766989290714264,
                0.9983357787132263
            ],
            "scale" : [
                0.9999999403953552,
                0.9999999403953552,
                1
            ],
            "translation" : [
                -2.980236502025946e-08,
                0.8476952910423279,
                -1.4210854715202004e-14
            ]
        },
        {
            "children" : [
                2
            ],
            "name" : "Bone.001_L",
            "rotation" : [
                -1.867911834096958e-07,
                -6.689693066164182e-08,
                -0.8195374011993408,
                0.5730257034301758
            ],
            "scale" : [
                1.000000238418579,
                1.0000001192092896,
                1
            ],
            "translation" : [
                4.656473540087802e-10,
                0.9388836622238159,
                6.827871601444713e-15
            ]
        },
        {
            "name" : "Bone.001_R.003",
            "rotation" : [
                -1.2023026840779494e-07,
                3.374792711952068e-08,
                -0.612450361251831,
                0.790509045124054
            ],
            "scale" : [
                0.9999999403953552,
                0.9999998807907104,
                0.9999999403953552
            ],
            "translation" : [
                5.960464477539063e-08,
                1.1644104719161987,
                -1.4210854715202004e-14
            ]
        },
        {
            "children" : [
                4
            ],
            "name" : "Bone.001_R.002",
            "rotation" : [
                -1.3214040972542307e-09,
                -1.4581426910353912e-07,
                -0.014411985874176025,
                0.9998961687088013
            ],
            "scale" : [
                1,
                0.9999998807907104,
                0.9999999403953552
            ],
            "translation" : [
                -5.960463766996327e-08,
                0.7582263350486755,
                1.0658141036401503e-14
            ]
        },
        {
            "children" : [
                5
            ],
            "name" : "Bone.001_R.001",
            "rotation" : [
                -0.00010272652434650809,
                -0.0018369598546996713,
                0.05583304166793823,
                0.9984384775161743
            ],
            "scale" : [
                1,
                1.0000001192092896,
                0.9999999403953552
            ],
            "translation" : [
                5.992652063468995e-08,
                0.8391245603561401,
                1.9117862848361256e-10
            ]
        },
        {
            "children" : [
                6
            ],
            "name" : "Bone.001_R",
            "rotation" : [
                -0.0015046006301417947,
                0.0010588581208139658,
                0.8178048729896545,
                0.5754928588867188
            ],
            "scale" : [
                0.9999999403953552,
                1,
                0.9999999403953552
            ],
            "translation" : [
                4.656473540087802e-10,
                0.9388836622238159,
                6.827871601444713e-15
            ]
        },
        {
            "name" : "Bone.002",
            "rotation" : [
                -6.469309532519674e-10,
                6.369671901040874e-09,
                -0.0061723762191832066,
                0.9999810457229614
            ],
            "translation" : [
                4.656473540087802e-10,
                0.9388836622238159,
                6.827871601444713e-15
            ]
        },
        {
            "children" : [
                3,
                7,
                8
            ],
            "name" : "Bone.001",
            "rotation" : [
                -6.704429722503846e-08,
                -5.542650072243305e-08,
                0.0024271628353744745,
                0.999997079372406
            ],
            "scale" : [
                0.9999999403953552,
                0.9999999403953552,
                1
            ],
            "translation" : [
                0,
                1,
                0
            ]
        },
        {
            "children" : [
                9
            ],
            "name" : "Bone"
        },
        {
            "name" : "Bone_L.003",
            "rotation" : [
                -0.009071940556168556,
                6.611333702721822e-08,
                0.6572230458259583,
                0.7536416053771973
            ],
            "scale" : [
                0.9999999403953552,
                1,
                0.9999998807907104
            ],
            "translation" : [
                1.4210854715202004e-14,
                1.5940577983856201,
                -5.9604381874578394e-08
            ]
        },
        {
            "children" : [
                11
            ],
            "name" : "Bone_L.002",
            "rotation" : [
                -0.040907926857471466,
                -5.76057814782871e-08,
                -3.0963288821794777e-08,
                0.9991629123687744
            ],
            "scale" : [
                1,
                0.9999999403953552,
                1
            ],
            "translation" : [
                2.6645352591003757e-14,
                1.283684253692627,
                -2.9802173173720803e-08
            ]
        },
        {
            "children" : [
                12
            ],
            "name" : "Bone_L.001",
            "rotation" : [
                -0.3988078832626343,
                2.391379894106649e-07,
                -2.1965593077766243e-07,
                0.9170345067977905
            ],
            "scale" : [
                1,
                1,
                1.0000001192092896
            ],
            "translation" : [
                -7.105427357601002e-15,
                0.4488285481929779,
                1.4901166522918174e-08
            ]
        },
        {
            "children" : [
                13
            ],
            "name" : "Bone_L",
            "rotation" : [
                -0.6201186776161194,
                -0.3397834300994873,
                -0.6201187968254089,
                0.3397834300994873
            ],
            "scale" : [
                1,
                0.9999999403953552,
                0.9999999403953552
            ]
        },
        {
            "name" : "Bone_R.003",
            "rotation" : [
                -0.009071940556168556,
                -6.611333702721822e-08,
                -0.6572230458259583,
                0.7536416053771973
            ],
            "scale" : [
                0.9999999403953552,
                1,
                0.9999998807907104
            ],
            "translation" : [
                -1.4210854715202004e-14,
                1.5940577983856201,
                -5.9604381874578394e-08
            ]
        },
        {
            "children" : [
                15
            ],
            "name" : "Bone_R.002",
            "rotation" : [
                -0.040907926857471466,
                5.76057814782871e-08,
                3.0963288821794777e-08,
                0.9991629123687744
            ],
            "scale" : [
                1,
                0.9999999403953552,
                1
            ],
            "translation" : [
                -2.6645352591003757e-14,
                1.283684253692627,
                -2.9802173173720803e-08
            ]
        },
        {
            "children" : [
                16
            ],
            "name" : "Bone_R.001",
            "rotation" : [
                -0.3988078832626343,
                -2.391379894106649e-07,
                2.1965593077766243e-07,
                0.9170345067977905
            ],
            "scale" : [
                1,
                1,
                1.0000001192092896
            ],
            "translation" : [
                7.105427357601002e-15,
                0.4488285481929779,
                1.4901166522918174e-08
            ]
        },
        {
            "children" : [
                17
            ],
            "name" : "Bone_R",
            "rotation" : [
                -0.6201186776161194,
                0.3397834300994873,
                0.6201187968254089,
                0.3397834300994873
            ],
            "scale" : [
                1,
                0.9999999403953552,
                0.9999999403953552
            ]
        },
        {
            "mesh" : 0,
            "name" : "Cube",
            "skin" : 0
        },
        {
            "children" : [
                19,
                10,
                14,
                18
            ],
            "name" : "\u30a2\u30fc\u30de\u30c1\u30e5\u30a2"
        }
    ],
    "materials" : [
        {
            "doubleSided" : true,
            "name" : "Material",
            "pbrMetallicRoughness" : {
                "baseColorTexture" : {
                    "index" : 0
                },
                "metallicFactor" : 0,
                "roughnessFactor" : 0.4000000059604645
            }
        }
    ],
    "meshes" : [
        {
            "name" : "Cube",
            "primitives" : [
                {
                    "attributes" : {
                        "POSITION" : 0,
                        "TEXCOORD_0" : 1,
                        "NORMAL" : 2,
                        "JOINTS_0" : 3,
                        "WEIGHTS_0" : 4
                    },
                    "indices" : 5,
                    "material" : 0
                }
            ]
        }
    ],
    "textures" : [
        {
            "sampler" : 0,
            "source" : 0
        }
    ],
    "images" : [
        {
            "mimeType" : "image/png",
            "name" : "Collision",
            "uri" : "Collision.png"
        }
    ],
    "skins" : [
        {
            "inverseBindMatrices" : 6,
            "joints" : [
                10,
                9,
                3,
                2,
                1,
                0,
                7,
                6,
                5,
                4,
                8,
                14,
                13,
                12,
                11,
                18,
                17,
                16,
                15
            ],
            "name" : "\u30a2\u30fc\u30de\u30c1\u30e5\u30a2"
        }
    ],
    "accessors" : [
        {
            "bufferView" : 0,
            "componentType" : 5126,
            "count" : 1109,
            "max" : [
                2.8076913356781006,
                3.3941667079925537,
                0.442555695772171
            ],
            "min" : [
                -2.804877519607544,
                -3.2207109928131104,
                -0.5118053555488586
            ],
            "type" : "VEC3"
        },
        {
            "bufferView" : 1,
            "componentType" : 5126,
            "count" : 1109,
            "type" : "VEC2"
        },
        {
            "bufferView" : 2,
            "componentType" : 5126,
            "count" : 1109,
            "type" : "VEC3"
        },
        {
            "bufferView" : 3,
            "componentType" : 5121,
            "count" : 1109,
            "type" : "VEC4"
        },
        {
            "bufferView" : 4,
            "componentType" : 5126,
            "count" : 1109,
            "type" : "VEC4"
        },
        {
            "bufferView" : 5,
            "componentType" : 5123,
            "count" : 1116,
            "type" : "SCALAR"
        },
        {
            "bufferView" : 6,
            "componentType" : 5126,
            "count" : 19,
            "type" : "MAT4"
        }
    ],
    "bufferViews" : [
        {
            "buffer" : 0,
            "byteLength" : 13308,
            "byteOffset" : 0,
            "target" : 34962
        },
        {
            "buffer" : 0,
            "byteLength" : 8872,
            "byteOffset" : 13308,
            "target" : 34962
        },
        {
            "buffer" : 0,
            "byteLength" : 13308,
            "byteOffset" : 22180,
            "target" : 34962
        },
        {
            "buffer" : 0,
            "byteLength" : 4436,
            "byteOffset" : 35488,
            "target" : 34962
        },
        {
            "buffer" : 0,
            "byteLength" : 17744,
            "byteOffset" : 39924,
            "target" : 34962
        },
        {
            "buffer" : 0,
            "byteLength" : 2232,
            "byteOffset" : 57668,
            "target" : 34963
        },
        {
            "buffer" : 0,
            "byteLength" : 1216,
            "byteOffset" : 59900
        }
    ],
    "samplers" : [
        {
            "magFilter" : 9729,
            "minFilter" : 9987
        }
    ],
    "buffers" : [
        {
            "byteLength" : 61116,
            "uri" : "Collision.bin"
        }
    ]
}
