{
    "asset" : {
        "generator" : "Khronos glTF Blender I/O v1.6.16",
        "version" : "2.0"
    },
    "scene" : 0,
    "scenes" : [
        {
            "name" : "Scene",
            "nodes" : [
                0
            ]
        }
    ],
    "nodes" : [
        {
            "mesh" : 0,
            "name" : "1F_Ceiling"
        }
    ],
    "materials" : [
        {
            "doubleSided" : true,
            "name" : "Material.470",
            "pbrMetallicRoughness" : {
                "baseColorFactor" : [
                    0.13758771121501923,
                    0.13758771121501923,
                    0.13758771121501923,
                    1
                ],
                "metallicFactor" : 0,
                "roughnessFactor" : 0.4000000059604645
            }
        },
        {
            "doubleSided" : true,
            "name" : "Material.544",
            "pbrMetallicRoughness" : {
                "baseColorFactor" : [
                    0.13758771121501923,
                    0.13758771121501923,
                    0.13758771121501923,
                    1
                ],
                "metallicFactor" : 0,
                "roughnessFactor" : 0.4000000059604645
            }
        },
        {
            "doubleSided" : true,
            "name" : "Material.580",
            "pbrMetallicRoughness" : {
                "baseColorFactor" : [
                    0.13758771121501923,
                    0.13758771121501923,
                    0.13758771121501923,
                    1
                ],
                "metallicFactor" : 0,
                "roughnessFactor" : 0.4000000059604645
            }
        }
    ],
    "meshes" : [
        {
            "name" : "Cube.469",
            "primitives" : [
                {
                    "attributes" : {
                        "POSITION" : 0,
                        "NORMAL" : 1,
                        "TEXCOORD_0" : 2
                    },
                    "indices" : 3,
                    "material" : 0
                },
                {
                    "attributes" : {
                        "POSITION" : 4,
                        "NORMAL" : 5,
                        "TEXCOORD_0" : 6
                    },
                    "indices" : 7,
                    "material" : 1
                },
                {
                    "attributes" : {
                        "POSITION" : 8,
                        "NORMAL" : 9,
                        "TEXCOORD_0" : 10
                    },
                    "indices" : 11,
                    "material" : 2
                }
            ]
        }
    ],
    "accessors" : [
        {
            "bufferView" : 0,
            "componentType" : 5126,
            "count" : 5,
            "max" : [
                -18,
                2.5,
                12
            ],
            "min" : [
                -43,
                2.5,
                -8
            ],
            "type" : "VEC3"
        },
        {
            "bufferView" : 1,
            "componentType" : 5126,
            "count" : 5,
            "type" : "VEC3"
        },
        {
            "bufferView" : 2,
            "componentType" : 5126,
            "count" : 5,
            "type" : "VEC2"
        },
        {
            "bufferView" : 3,
            "componentType" : 5123,
            "count" : 9,
            "type" : "SCALAR"
        },
        {
            "bufferView" : 4,
            "componentType" : 5126,
            "count" : 16,
            "max" : [
                37,
                2.5,
                32
            ],
            "min" : [
                -43,
                2.5,
                -28
            ],
            "type" : "VEC3"
        },
        {
            "bufferView" : 5,
            "componentType" : 5126,
            "count" : 16,
            "type" : "VEC3"
        },
        {
            "bufferView" : 6,
            "componentType" : 5126,
            "count" : 16,
            "type" : "VEC2"
        },
        {
            "bufferView" : 7,
            "componentType" : 5123,
            "count" : 42,
            "type" : "SCALAR"
        },
        {
            "bufferView" : 8,
            "componentType" : 5126,
            "count" : 4,
            "max" : [
                2,
                6.5,
                2
            ],
            "min" : [
                -23,
                6.5,
                -23
            ],
            "type" : "VEC3"
        },
        {
            "bufferView" : 9,
            "componentType" : 5126,
            "count" : 4,
            "type" : "VEC3"
        },
        {
            "bufferView" : 10,
            "componentType" : 5126,
            "count" : 4,
            "type" : "VEC2"
        },
        {
            "bufferView" : 11,
            "componentType" : 5123,
            "count" : 6,
            "type" : "SCALAR"
        }
    ],
    "bufferViews" : [
        {
            "buffer" : 0,
            "byteLength" : 60,
            "byteOffset" : 0
        },
        {
            "buffer" : 0,
            "byteLength" : 60,
            "byteOffset" : 60
        },
        {
            "buffer" : 0,
            "byteLength" : 40,
            "byteOffset" : 120
        },
        {
            "buffer" : 0,
            "byteLength" : 18,
            "byteOffset" : 160
        },
        {
            "buffer" : 0,
            "byteLength" : 192,
            "byteOffset" : 180
        },
        {
            "buffer" : 0,
            "byteLength" : 192,
            "byteOffset" : 372
        },
        {
            "buffer" : 0,
            "byteLength" : 128,
            "byteOffset" : 564
        },
        {
            "buffer" : 0,
            "byteLength" : 84,
            "byteOffset" : 692
        },
        {
            "buffer" : 0,
            "byteLength" : 48,
            "byteOffset" : 776
        },
        {
            "buffer" : 0,
            "byteLength" : 48,
            "byteOffset" : 824
        },
        {
            "buffer" : 0,
            "byteLength" : 32,
            "byteOffset" : 872
        },
        {
            "buffer" : 0,
            "byteLength" : 12,
            "byteOffset" : 904
        }
    ],
    "buffers" : [
        {
            "byteLength" : 916,
            "uri" : "1StageCeiling.bin"
        }
    ]
}
