{
    "asset" : {
        "generator" : "Khronos glTF Blender I/O v1.6.16",
        "version" : "2.0"
    },
    "scene" : 0,
    "scenes" : [
        {
            "name" : "Scene",
            "nodes" : [
                0
            ]
        }
    ],
    "nodes" : [
        {
            "mesh" : 0,
            "name" : "2F_Ceiling"
        }
    ],
    "materials" : [
        {
            "doubleSided" : true,
            "name" : "Material.451",
            "pbrMetallicRoughness" : {
                "baseColorFactor" : [
                    0.13758771121501923,
                    0.13758771121501923,
                    0.13758771121501923,
                    1
                ],
                "metallicFactor" : 0,
                "roughnessFactor" : 0.4000000059604645
            }
        },
        {
            "doubleSided" : true,
            "name" : "Material.468",
            "pbrMetallicRoughness" : {
                "baseColorFactor" : [
                    0.13758771121501923,
                    0.13758771121501923,
                    0.13758771121501923,
                    1
                ],
                "metallicFactor" : 0,
                "roughnessFactor" : 0.4000000059604645
            }
        }
    ],
    "meshes" : [
        {
            "name" : "Cube.589",
            "primitives" : [
                {
                    "attributes" : {
                        "POSITION" : 0,
                        "NORMAL" : 1,
                        "TEXCOORD_0" : 2
                    },
                    "indices" : 3,
                    "material" : 0
                },
                {
                    "attributes" : {
                        "POSITION" : 4,
                        "NORMAL" : 5,
                        "TEXCOORD_0" : 6
                    },
                    "indices" : 7,
                    "material" : 1
                }
            ]
        }
    ],
    "accessors" : [
        {
            "bufferView" : 0,
            "componentType" : 5126,
            "count" : 10,
            "max" : [
                27,
                16,
                7
            ],
            "min" : [
                -23,
                16,
                -28
            ],
            "type" : "VEC3"
        },
        {
            "bufferView" : 1,
            "componentType" : 5126,
            "count" : 10,
            "type" : "VEC3"
        },
        {
            "bufferView" : 2,
            "componentType" : 5126,
            "count" : 10,
            "type" : "VEC2"
        },
        {
            "bufferView" : 3,
            "componentType" : 5123,
            "count" : 24,
            "type" : "SCALAR"
        },
        {
            "bufferView" : 4,
            "componentType" : 5126,
            "count" : 8,
            "max" : [
                -23,
                16,
                7
            ],
            "min" : [
                -43,
                16,
                -28
            ],
            "type" : "VEC3"
        },
        {
            "bufferView" : 5,
            "componentType" : 5126,
            "count" : 8,
            "type" : "VEC3"
        },
        {
            "bufferView" : 6,
            "componentType" : 5126,
            "count" : 8,
            "type" : "VEC2"
        },
        {
            "bufferView" : 7,
            "componentType" : 5123,
            "count" : 18,
            "type" : "SCALAR"
        }
    ],
    "bufferViews" : [
        {
            "buffer" : 0,
            "byteLength" : 120,
            "byteOffset" : 0
        },
        {
            "buffer" : 0,
            "byteLength" : 120,
            "byteOffset" : 120
        },
        {
            "buffer" : 0,
            "byteLength" : 80,
            "byteOffset" : 240
        },
        {
            "buffer" : 0,
            "byteLength" : 48,
            "byteOffset" : 320
        },
        {
            "buffer" : 0,
            "byteLength" : 96,
            "byteOffset" : 368
        },
        {
            "buffer" : 0,
            "byteLength" : 96,
            "byteOffset" : 464
        },
        {
            "buffer" : 0,
            "byteLength" : 64,
            "byteOffset" : 560
        },
        {
            "buffer" : 0,
            "byteLength" : 36,
            "byteOffset" : 624
        }
    ],
    "buffers" : [
        {
            "byteLength" : 660,
            "uri" : "2StageCeiling.bin"
        }
    ]
}
