{
    "asset" : {
        "generator" : "Khronos glTF Blender I/O v3.2.40",
        "version" : "2.0"
    },
    "scene" : 0,
    "scenes" : [
        {
            "name" : "Scene",
            "nodes" : [
                0
            ]
        }
    ],
    "nodes" : [
        {
            "mesh" : 0,
            "name" : "Gun"
        }
    ],
    "meshes" : [
        {
            "name" : "\u7acb\u65b9\u4f53",
            "primitives" : [
                {
                    "attributes" : {
                        "POSITION" : 0,
                        "NORMAL" : 1,
                        "TEXCOORD_0" : 2
                    },
                    "indices" : 3
                }
            ]
        }
    ],
    "accessors" : [
        {
            "bufferView" : 0,
            "componentType" : 5126,
            "count" : 572,
            "max" : [
                0.1300000101327896,
                1.71999990940094,
                0.699999988079071
            ],
            "min" : [
                -0.12999999523162842,
                0.8499999046325684,
                -0.3499999940395355
            ],
            "type" : "VEC3"
        },
        {
            "bufferView" : 1,
            "componentType" : 5126,
            "count" : 572,
            "type" : "VEC3"
        },
        {
            "bufferView" : 2,
            "componentType" : 5126,
            "count" : 572,
            "type" : "VEC2"
        },
        {
            "bufferView" : 3,
            "componentType" : 5123,
            "count" : 1026,
            "type" : "SCALAR"
        }
    ],
    "bufferViews" : [
        {
            "buffer" : 0,
            "byteLength" : 6864,
            "byteOffset" : 0
        },
        {
            "buffer" : 0,
            "byteLength" : 6864,
            "byteOffset" : 6864
        },
        {
            "buffer" : 0,
            "byteLength" : 4576,
            "byteOffset" : 13728
        },
        {
            "buffer" : 0,
            "byteLength" : 2052,
            "byteOffset" : 18304
        }
    ],
    "buffers" : [
        {
            "byteLength" : 20356,
            "uri" : "Gun.bin"
        }
    ]
}
