{
    "asset" : {
        "generator" : "Khronos glTF Blender I/O v3.2.40",
        "version" : "2.0"
    },
    "scene" : 0,
    "scenes" : [
        {
            "name" : "Scene",
            "nodes" : [
                0,
                1
            ]
        }
    ],
    "nodes" : [
        {
            "mesh" : 0,
            "name" : "Gun"
        },
        {
            "mesh" : 1,
            "name" : "Move.001"
        }
    ],
    "meshes" : [
        {
            "name" : "\u7acb\u65b9\u4f53",
            "primitives" : [
                {
                    "attributes" : {
                        "POSITION" : 0,
                        "NORMAL" : 1,
                        "TEXCOORD_0" : 2
                    },
                    "indices" : 3
                }
            ]
        },
        {
            "name" : "\u7acb\u65b9\u4f53.003",
            "primitives" : [
                {
                    "attributes" : {
                        "POSITION" : 4,
                        "NORMAL" : 5,
                        "TEXCOORD_0" : 6
                    },
                    "indices" : 7
                }
            ]
        }
    ],
    "accessors" : [
        {
            "bufferView" : 0,
            "componentType" : 5126,
            "count" : 572,
            "max" : [
                0.1300000101327896,
                1.71999990940094,
                0.699999988079071
            ],
            "min" : [
                -0.12999999523162842,
                0.8499999046325684,
                -0.3499999940395355
            ],
            "type" : "VEC3"
        },
        {
            "bufferView" : 1,
            "componentType" : 5126,
            "count" : 572,
            "type" : "VEC3"
        },
        {
            "bufferView" : 2,
            "componentType" : 5126,
            "count" : 572,
            "type" : "VEC2"
        },
        {
            "bufferView" : 3,
            "componentType" : 5123,
            "count" : 1026,
            "type" : "SCALAR"
        },
        {
            "bufferView" : 4,
            "componentType" : 5126,
            "count" : 430,
            "max" : [
                0.5950000882148743,
                1.1655000448226929,
                1.1049998998641968
            ],
            "min" : [
                -0.5950000882148743,
                0.0029999390244483948,
                -1.1049998998641968
            ],
            "type" : "VEC3"
        },
        {
            "bufferView" : 5,
            "componentType" : 5126,
            "count" : 430,
            "type" : "VEC3"
        },
        {
            "bufferView" : 6,
            "componentType" : 5126,
            "count" : 430,
            "type" : "VEC2"
        },
        {
            "bufferView" : 7,
            "componentType" : 5123,
            "count" : 738,
            "type" : "SCALAR"
        }
    ],
    "bufferViews" : [
        {
            "buffer" : 0,
            "byteLength" : 6864,
            "byteOffset" : 0
        },
        {
            "buffer" : 0,
            "byteLength" : 6864,
            "byteOffset" : 6864
        },
        {
            "buffer" : 0,
            "byteLength" : 4576,
            "byteOffset" : 13728
        },
        {
            "buffer" : 0,
            "byteLength" : 2052,
            "byteOffset" : 18304
        },
        {
            "buffer" : 0,
            "byteLength" : 5160,
            "byteOffset" : 20356
        },
        {
            "buffer" : 0,
            "byteLength" : 5160,
            "byteOffset" : 25516
        },
        {
            "buffer" : 0,
            "byteLength" : 3440,
            "byteOffset" : 30676
        },
        {
            "buffer" : 0,
            "byteLength" : 1476,
            "byteOffset" : 34116
        }
    ],
    "buffers" : [
        {
            "byteLength" : 35592,
            "uri" : "Move_Turret.bin"
        }
    ]
}
