{
    "asset" : {
        "generator" : "Khronos glTF Blender I/O v3.2.40",
        "version" : "2.0"
    },
    "scene" : 0,
    "scenes" : [
        {
            "name" : "Scene",
            "nodes" : [
                0,
                1,
                2
            ]
        }
    ],
    "nodes" : [
        {
            "mesh" : 0,
            "name" : "No_Move"
        },
        {
            "mesh" : 1,
            "name" : "Gun"
        },
        {
            "mesh" : 2,
            "name" : "Move.001"
        }
    ],
    "meshes" : [
        {
            "name" : "\u7acb\u65b9\u4f53.001",
            "primitives" : [
                {
                    "attributes" : {
                        "POSITION" : 0,
                        "NORMAL" : 1,
                        "TEXCOORD_0" : 2
                    },
                    "indices" : 3
                }
            ]
        },
        {
            "name" : "\u7acb\u65b9\u4f53",
            "primitives" : [
                {
                    "attributes" : {
                        "POSITION" : 4,
                        "NORMAL" : 5,
                        "TEXCOORD_0" : 6
                    },
                    "indices" : 7
                }
            ]
        },
        {
            "name" : "\u7acb\u65b9\u4f53.003",
            "primitives" : [
                {
                    "attributes" : {
                        "POSITION" : 8,
                        "NORMAL" : 9,
                        "TEXCOORD_0" : 10
                    },
                    "indices" : 11
                }
            ]
        }
    ],
    "accessors" : [
        {
            "bufferView" : 0,
            "componentType" : 5126,
            "count" : 346,
            "max" : [
                0.9100001454353333,
                1.076246738433838,
                0.7450001239776611
            ],
            "min" : [
                -0.8900001049041748,
                0.0012466907501220703,
                -0.7450001239776611
            ],
            "type" : "VEC3"
        },
        {
            "bufferView" : 1,
            "componentType" : 5126,
            "count" : 346,
            "type" : "VEC3"
        },
        {
            "bufferView" : 2,
            "componentType" : 5126,
            "count" : 346,
            "type" : "VEC2"
        },
        {
            "bufferView" : 3,
            "componentType" : 5123,
            "count" : 540,
            "type" : "SCALAR"
        },
        {
            "bufferView" : 4,
            "componentType" : 5126,
            "count" : 572,
            "max" : [
                0.1300000101327896,
                1.71999990940094,
                0.699999988079071
            ],
            "min" : [
                -0.12999999523162842,
                0.8499999046325684,
                -0.3499999940395355
            ],
            "type" : "VEC3"
        },
        {
            "bufferView" : 5,
            "componentType" : 5126,
            "count" : 572,
            "type" : "VEC3"
        },
        {
            "bufferView" : 6,
            "componentType" : 5126,
            "count" : 572,
            "type" : "VEC2"
        },
        {
            "bufferView" : 7,
            "componentType" : 5123,
            "count" : 1026,
            "type" : "SCALAR"
        },
        {
            "bufferView" : 8,
            "componentType" : 5126,
            "count" : 430,
            "max" : [
                0.5950000882148743,
                1.1655000448226929,
                1.1049998998641968
            ],
            "min" : [
                -0.5950000882148743,
                0.0029999390244483948,
                -1.1049998998641968
            ],
            "type" : "VEC3"
        },
        {
            "bufferView" : 9,
            "componentType" : 5126,
            "count" : 430,
            "type" : "VEC3"
        },
        {
            "bufferView" : 10,
            "componentType" : 5126,
            "count" : 430,
            "type" : "VEC2"
        },
        {
            "bufferView" : 11,
            "componentType" : 5123,
            "count" : 738,
            "type" : "SCALAR"
        }
    ],
    "bufferViews" : [
        {
            "buffer" : 0,
            "byteLength" : 4152,
            "byteOffset" : 0
        },
        {
            "buffer" : 0,
            "byteLength" : 4152,
            "byteOffset" : 4152
        },
        {
            "buffer" : 0,
            "byteLength" : 2768,
            "byteOffset" : 8304
        },
        {
            "buffer" : 0,
            "byteLength" : 1080,
            "byteOffset" : 11072
        },
        {
            "buffer" : 0,
            "byteLength" : 6864,
            "byteOffset" : 12152
        },
        {
            "buffer" : 0,
            "byteLength" : 6864,
            "byteOffset" : 19016
        },
        {
            "buffer" : 0,
            "byteLength" : 4576,
            "byteOffset" : 25880
        },
        {
            "buffer" : 0,
            "byteLength" : 2052,
            "byteOffset" : 30456
        },
        {
            "buffer" : 0,
            "byteLength" : 5160,
            "byteOffset" : 32508
        },
        {
            "buffer" : 0,
            "byteLength" : 5160,
            "byteOffset" : 37668
        },
        {
            "buffer" : 0,
            "byteLength" : 3440,
            "byteOffset" : 42828
        },
        {
            "buffer" : 0,
            "byteLength" : 1476,
            "byteOffset" : 46268
        }
    ],
    "buffers" : [
        {
            "byteLength" : 47744,
            "uri" : "Turret.bin"
        }
    ]
}
