{
    "asset" : {
        "generator" : "Khronos glTF Blender I/O v3.2.40",
        "version" : "2.0"
    },
    "scene" : 0,
    "scenes" : [
        {
            "name" : "Scene",
            "nodes" : [
                0,
                1,
                2
            ]
        }
    ],
    "nodes" : [
        {
            "mesh" : 0,
            "name" : "Gun"
        },
        {
            "mesh" : 1,
            "name" : "No_Move"
        },
        {
            "mesh" : 2,
            "name" : "Move.001"
        }
    ],
    "meshes" : [
        {
            "name" : "\u7acb\u65b9\u4f53",
            "primitives" : [
                {
                    "attributes" : {
                        "POSITION" : 0,
                        "NORMAL" : 1,
                        "TEXCOORD_0" : 2
                    },
                    "indices" : 3
                }
            ]
        },
        {
            "name" : "\u7acb\u65b9\u4f53.001",
            "primitives" : [
                {
                    "attributes" : {
                        "POSITION" : 4,
                        "NORMAL" : 5,
                        "TEXCOORD_0" : 6
                    },
                    "indices" : 7
                }
            ]
        },
        {
            "name" : "\u7acb\u65b9\u4f53.003",
            "primitives" : [
                {
                    "attributes" : {
                        "POSITION" : 8,
                        "NORMAL" : 9,
                        "TEXCOORD_0" : 10
                    },
                    "indices" : 11
                }
            ]
        }
    ],
    "accessors" : [
        {
            "bufferView" : 0,
            "componentType" : 5126,
            "count" : 533,
            "max" : [
                0.3499999940395355,
                1.71999990940094,
                0.12999999523162842
            ],
            "min" : [
                -0.699999988079071,
                0.8499999046325684,
                -0.12999999523162842
            ],
            "type" : "VEC3"
        },
        {
            "bufferView" : 1,
            "componentType" : 5126,
            "count" : 533,
            "type" : "VEC3"
        },
        {
            "bufferView" : 2,
            "componentType" : 5126,
            "count" : 533,
            "type" : "VEC2"
        },
        {
            "bufferView" : 3,
            "componentType" : 5123,
            "count" : 1026,
            "type" : "SCALAR"
        },
        {
            "bufferView" : 4,
            "componentType" : 5126,
            "count" : 351,
            "max" : [
                0.8899999856948853,
                1.076246738433838,
                0.7450000047683716
            ],
            "min" : [
                -0.9100000262260437,
                0.0012466907501220703,
                -0.7450000047683716
            ],
            "type" : "VEC3"
        },
        {
            "bufferView" : 5,
            "componentType" : 5126,
            "count" : 351,
            "type" : "VEC3"
        },
        {
            "bufferView" : 6,
            "componentType" : 5126,
            "count" : 351,
            "type" : "VEC2"
        },
        {
            "bufferView" : 7,
            "componentType" : 5123,
            "count" : 540,
            "type" : "SCALAR"
        },
        {
            "bufferView" : 8,
            "componentType" : 5126,
            "count" : 430,
            "max" : [
                1.1049998998641968,
                1.1655000448226929,
                0.5950000286102295
            ],
            "min" : [
                -1.1049998998641968,
                0.0029999390244483948,
                -0.5950000286102295
            ],
            "type" : "VEC3"
        },
        {
            "bufferView" : 9,
            "componentType" : 5126,
            "count" : 430,
            "type" : "VEC3"
        },
        {
            "bufferView" : 10,
            "componentType" : 5126,
            "count" : 430,
            "type" : "VEC2"
        },
        {
            "bufferView" : 11,
            "componentType" : 5123,
            "count" : 738,
            "type" : "SCALAR"
        }
    ],
    "bufferViews" : [
        {
            "buffer" : 0,
            "byteLength" : 6396,
            "byteOffset" : 0
        },
        {
            "buffer" : 0,
            "byteLength" : 6396,
            "byteOffset" : 6396
        },
        {
            "buffer" : 0,
            "byteLength" : 4264,
            "byteOffset" : 12792
        },
        {
            "buffer" : 0,
            "byteLength" : 2052,
            "byteOffset" : 17056
        },
        {
            "buffer" : 0,
            "byteLength" : 4212,
            "byteOffset" : 19108
        },
        {
            "buffer" : 0,
            "byteLength" : 4212,
            "byteOffset" : 23320
        },
        {
            "buffer" : 0,
            "byteLength" : 2808,
            "byteOffset" : 27532
        },
        {
            "buffer" : 0,
            "byteLength" : 1080,
            "byteOffset" : 30340
        },
        {
            "buffer" : 0,
            "byteLength" : 5160,
            "byteOffset" : 31420
        },
        {
            "buffer" : 0,
            "byteLength" : 5160,
            "byteOffset" : 36580
        },
        {
            "buffer" : 0,
            "byteLength" : 3440,
            "byteOffset" : 41740
        },
        {
            "buffer" : 0,
            "byteLength" : 1476,
            "byteOffset" : 45180
        }
    ],
    "buffers" : [
        {
            "byteLength" : 46656,
            "uri" : "Turret.bin"
        }
    ]
}
